<svg id="b19d57b1-437b-46e0-8cd6-6e15db0557e1" data-name="Capa 4" xmlns="http://www.w3.org/2000/svg" viewBox="0 0 139.84 139.84"><defs><style>.b0d14608-aade-41fb-a8ca-29eecedd0816{fill:none;stroke:#fff;stroke-miterlimit:10;stroke-width:3px;}</style></defs><title>behance</title><rect class="b0d14608-aade-41fb-a8ca-29eecedd0816" x="1.5" y="1.5" width="136.84" height="136.84" rx="10.62"/><path class="b0d14608-aade-41fb-a8ca-29eecedd0816" d="M1502.54,1129.41v61.19h32.17a20,20,0,0,0,11.92-3.79,17,17,0,0,0,7-14.37c0-12.33-5.23-14-7.6-14.17a.22.22,0,0,1-.09-.42c1.89-1.09,5.67-4.42,5.67-13.64,0-6.07-3.53-9.76-7.06-12a19.89,19.89,0,0,0-10.45-2.85Z" transform="translate(-1483.12 -1091.09)"/><path class="b0d14608-aade-41fb-a8ca-29eecedd0816" d="M1515,1139.83v13.45h18.82s5.38-1.34,5.38-6.72-5.38-6.73-5.38-6.73Z" transform="translate(-1483.12 -1091.09)"/><path class="b0d14608-aade-41fb-a8ca-29eecedd0816" d="M1515,1163.37v16.47h20.13a8.43,8.43,0,0,0,5.75-8.24,8.34,8.34,0,0,0-5.75-8.23Z" transform="translate(-1483.12 -1091.09)"/><path class="b0d14608-aade-41fb-a8ca-29eecedd0816" d="M1570.45,1171.77h32.94s3.36-28.24-22.18-28.24-23.54,23.54-23.54,23.54-2.17,25.55,22.86,25.55c23.54,0,22.19-15.47,22.19-15.47h-12.1s-2,5.38-9.41,5.38C1581.21,1182.53,1570.45,1183.2,1570.45,1171.77Z" transform="translate(-1483.12 -1091.09)"/><path class="b0d14608-aade-41fb-a8ca-29eecedd0816" d="M1570.78,1163.37H1591s0-9.42-10.08-9.42S1570.78,1163.37,1570.78,1163.37Z" transform="translate(-1483.12 -1091.09)"/><rect class="b0d14608-aade-41fb-a8ca-29eecedd0816" x="83.63" y="38.67" width="27.57" height="8.07"/></svg>