<svg id="b6a9c655-42b7-4f3a-91a0-e170426cc6cb" data-name="Capa 4" xmlns="http://www.w3.org/2000/svg" viewBox="0 0 139.84 139.84"><defs><style>.bf13a833-56e2-4a58-a5ab-2abe0cd5dc3d{fill:none;stroke:#fff;stroke-miterlimit:10;stroke-width:3px;}</style></defs><title>facebook</title><path class="bf13a833-56e2-4a58-a5ab-2abe0cd5dc3d" d="M1003.39,1106.63v115.6a10.62,10.62,0,0,0,10.62,10.62h115.6a10.63,10.63,0,0,0,10.62-10.62v-115.6a10.62,10.62,0,0,0-10.62-10.62H1014A10.61,10.61,0,0,0,1003.39,1106.63Zm90.48,29.42h-8c-6.27,0-7.49,3-7.49,7.35v9.64h15l-1.95,15.11h-13v38.75h-15.59v-38.75h-13v-15.11h13v-11.14c0-12.92,7.89-20,19.42-20a108.68,108.68,0,0,1,11.66.59Z" transform="translate(-1001.89 -1094.51)"/><rect class="bf13a833-56e2-4a58-a5ab-2abe0cd5dc3d" x="1.5" y="1.5" width="136.84" height="136.84" rx="10.62"/><rect class="bf13a833-56e2-4a58-a5ab-2abe0cd5dc3d" x="1.5" y="1.5" width="136.84" height="136.84" rx="10.62"/></svg>