<svg id="a96de8af-6d05-48e5-958a-24094fa6e937" data-name="Capa 4" xmlns="http://www.w3.org/2000/svg" viewBox="0 0 139.84 139.84"><defs><style>.a3ebd027-68d5-4931-9745-b4630e25b016{fill:none;stroke:#fff;stroke-miterlimit:10;stroke-width:3px;}</style></defs><title>github</title><path class="a3ebd027-68d5-4931-9745-b4630e25b016" d="M1580.89,1228.55c0-5.87,0-11.73.06-17.59.08-5.69-.59-11.11-4.85-15.56,3.25-.64,6.34-1.1,9.35-1.86,8.91-2.25,16.44-6.62,20.5-15.25,4.43-9.41,5.62-19.32,2.36-29.33-1.06-3.29-3.42-6.15-5.11-9.24a3.26,3.26,0,0,1-.43-2.16,26.93,26.93,0,0,0-.88-17.39,2.36,2.36,0,0,0-1.8-1.16,21.85,21.85,0,0,0-10,2.63c-2.7,1.32-5.26,2.94-7.93,4.34a3.57,3.57,0,0,1-2.24.41,73.36,73.36,0,0,0-35.16,0,3.58,3.58,0,0,1-2.39-.48c-4.91-3-9.89-5.82-15.68-6.77-.18,0-.35-.08-.52-.1-2.89-.4-3.14-.26-4,2.57a26.94,26.94,0,0,0,.06,17.18c-7.26,7.91-8.54,17.27-7.2,27.29.83,6.19,2.64,12,6.59,17,4.84,6.09,11.46,9.16,18.83,10.87,2.56.59,5.17,1,8,1.5a17.81,17.81,0,0,0-4.46,9.12,2,2,0,0,1-1.15,1.1c-8.35,3.51-15.77,1.19-20.59-6.42-2.44-3.84-5.62-6.73-10.23-7.59a9.85,9.85,0,0,0-3.66.19c-1.18.24-1.32,1.13-.57,2a8.08,8.08,0,0,0,2,1.77,20.19,20.19,0,0,1,8.26,10.15c2.87,7.07,8.41,10.14,15.63,10.56a98.58,98.58,0,0,0,10-.41c0,4.62.12,9.41-.05,14.19a2.87,2.87,0,0,1-1.77,2.58h40.94C1581.56,1232,1580.89,1230.63,1580.89,1228.55Z" transform="translate(-1488.66 -1094.51)"/><rect class="a3ebd027-68d5-4931-9745-b4630e25b016" x="1.5" y="1.5" width="136.84" height="136.84" rx="10.62"/></svg>