<svg id="b5bcc03e-d88f-4a8e-a236-295122376c6e" data-name="Capa 4" xmlns="http://www.w3.org/2000/svg" viewBox="0 0 139.84 139.84"><defs><style>.a394a6a8-58c9-42bc-a355-6c591cd633f8{fill:none;stroke:#fff;stroke-miterlimit:10;stroke-width:3px;}</style></defs><title>instagram</title><path class="a394a6a8-58c9-42bc-a355-6c591cd633f8" d="M350.57,1153.54c-15.25-10.64-31.95,6-21.31,21.3a5.21,5.21,0,0,0,1.34,1.35c15.27,10.65,32-6,21.32-21.3A5.41,5.41,0,0,0,350.57,1153.54Z" transform="translate(-270.5 -1094.51)"/><path class="a394a6a8-58c9-42bc-a355-6c591cd633f8" d="M375,1138.88a14.62,14.62,0,0,0-8.37-8.37,24.31,24.31,0,0,0-8.18-1.51c-4.65-.22-6-.26-17.81-.26s-13.16,0-17.81.26a24.37,24.37,0,0,0-8.18,1.51,14.62,14.62,0,0,0-8.37,8.37,24.31,24.31,0,0,0-1.51,8.18c-.21,4.65-.26,6-.26,17.81s.05,13.16.26,17.81a24.37,24.37,0,0,0,1.51,8.18,14.57,14.57,0,0,0,8.37,8.36,24,24,0,0,0,8.18,1.52c4.65.21,6,.26,17.81.26s13.16,0,17.81-.26a24,24,0,0,0,8.18-1.52,14.57,14.57,0,0,0,8.37-8.36,24.37,24.37,0,0,0,1.51-8.18c.22-4.65.26-6,.26-17.81s0-13.16-.26-17.81A24.31,24.31,0,0,0,375,1138.88Zm-20.14,44.21c-22.79,14.54-47-9.63-32.45-32.43a13,13,0,0,1,4-4c22.79-14.54,47,9.63,32.45,32.43A13.11,13.11,0,0,1,354.81,1183.09ZM368,1145.22c-5.66,4.31-12.07-2.1-7.74-7.76C365.91,1133.16,372.3,1139.56,368,1145.22Z" transform="translate(-270.5 -1094.51)"/><path class="a394a6a8-58c9-42bc-a355-6c591cd633f8" d="M272,1106.63v115.6a10.62,10.62,0,0,0,10.62,10.62h115.6a10.62,10.62,0,0,0,10.62-10.62v-115.6A10.61,10.61,0,0,0,398.22,1096H282.62A10.61,10.61,0,0,0,272,1106.63ZM384.39,1183a32.31,32.31,0,0,1-2,10.7,22.63,22.63,0,0,1-12.89,12.89,32.31,32.31,0,0,1-10.7,2c-4.7.22-6.2.27-18.17.27s-13.47,0-18.17-.27a32.26,32.26,0,0,1-10.7-2,22.63,22.63,0,0,1-12.89-12.89,32.31,32.31,0,0,1-2-10.7c-.22-4.7-.27-6.2-.27-18.17s.05-13.47.27-18.17a32.26,32.26,0,0,1,2-10.7,22.56,22.56,0,0,1,12.89-12.89,32.48,32.48,0,0,1,10.7-2c4.7-.21,6.2-.26,18.17-.26s13.47,0,18.17.26a32.54,32.54,0,0,1,10.7,2A22.56,22.56,0,0,1,382.35,1136a32.26,32.26,0,0,1,2,10.7c.22,4.7.27,6.2.27,18.17S384.61,1178.34,384.39,1183Z" transform="translate(-270.5 -1094.51)"/></svg>