<svg id="e0bcfe7b-9dcf-45c2-82a9-489da7155a8a" data-name="Capa 4" xmlns="http://www.w3.org/2000/svg" viewBox="0 0 139.84 139.84"><defs><style>.a807f89d-5952-44d5-b401-d6f5d8793fd6{fill:none;stroke:#fff;stroke-miterlimit:10;stroke-width:3px;}</style></defs><title>linkedin</title><path class="a807f89d-5952-44d5-b401-d6f5d8793fd6" d="M515.77,1106.63v115.6a10.63,10.63,0,0,0,10.62,10.62H642a10.63,10.63,0,0,0,10.63-10.62v-115.6A10.62,10.62,0,0,0,642,1096H526.39A10.62,10.62,0,0,0,515.77,1106.63Zm47.81,95.07H548.09v-49.79h15.49Zm-9.49-56.76a9,9,0,1,1,10.54-10.61A9,9,0,0,1,554.09,1144.94Zm67.44,56.76H606.07v-24.21c0-5.78-.11-13.21-8.05-13.21s-9.28,6.29-9.28,12.79v24.63H573.29v-49.79h14.83v6.8h.21c2.07-3.91,7.12-8,14.65-8,15.65,0,18.55,10.31,18.55,23.72Z" transform="translate(-514.27 -1094.51)"/></svg>