<svg id="e0960fb3-bcf0-45a2-9e3d-0eebab20fb4f" data-name="Capa 4" xmlns="http://www.w3.org/2000/svg" viewBox="0 0 139.84 139.84"><defs><style>.bcf167db-007d-4bdc-a98d-ce6c6b96bb90{fill:none;stroke:#fff;stroke-miterlimit:10;stroke-width:3px;}</style></defs><title>telegram</title><path class="bcf167db-007d-4bdc-a98d-ce6c6b96bb90" d="M853.08,1144.43c.09-1.45-2.3,0-2.3,0l-38.93,24.73c1.91,6.24,4.09,13.39,6.25,20.43l1.7-14.52s31.16-28,32.43-29.19S853.08,1144.43,853.08,1144.43Z" transform="translate(-757.96 -1094.51)"/><path class="bcf167db-007d-4bdc-a98d-ce6c6b96bb90" d="M759.46,1106.63v115.6a10.62,10.62,0,0,0,10.62,10.62h115.6a10.62,10.62,0,0,0,10.62-10.62v-115.6A10.61,10.61,0,0,0,885.68,1096H770.08A10.61,10.61,0,0,0,759.46,1106.63Zm94.73,88.28s-1.7,4.25-6.38,2.21l-17.32-13.28L819.38,1194a2,2,0,0,1-1.82.25s-.82-.08-1.84-3.31-6.22-20.26-6.22-20.26l0,0,0,0-17.19-5.79s-2.64-.94-2.89-3,3-3.15,3-3.15l68.35-26.81s5.62-2.47,5.62,1.62Z" transform="translate(-757.96 -1094.51)"/></svg>